<?xml version="1.0" standalone="no"?>
<!DOCTYPE svg PUBLIC "-//W3C//DTD SVG 20010904//EN"
 "http://www.w3.org/TR/2001/REC-SVG-20010904/DTD/svg10.dtd">
<svg version="1.0" xmlns="http://www.w3.org/2000/svg"
 width="574.000000pt" height="574.000000pt" viewBox="0 0 574.000000 574.000000"
 preserveAspectRatio="xMidYMid meet">
<metadata>
Created by potrace 1.14, written by Peter Selinger 2001-2017
</metadata>
<g transform="translate(0.000000,574.000000) scale(0.100000,-0.100000)"
fill="#000000" stroke="none">
<path d="M2910 5730 c790 -34 1446 -322 1971 -868 215 -223 356 -425 499 -717
211 -429 303 -855 287 -1325 -15 -428 -113 -806 -307 -1190 -85 -167 -137
-249 -261 -415 -625 -836 -1688 -1260 -2718 -1084 -1151 196 -2072 1093 -2295
2234 -41 209 -51 318 -50 560 0 295 31 511 109 779 96 331 280 682 506 968
100 125 312 339 432 432 48 38 87 71 87 73 0 19 -232 -182 -350 -304 -433
-443 -695 -975 -791 -1603 -33 -210 -32 -591 0 -800 101 -658 380 -1206 842
-1656 442 -429 968 -688 1599 -785 209 -32 590 -33 800 0 441 67 837 218 1185
451 177 119 286 210 446 369 461 463 738 1037 821 1701 16 135 16 505 0 640
-58 462 -214 891 -461 1262 -125 187 -203 281 -370 449 -224 223 -446 384
-721 523 -411 208 -787 301 -1250 310 l-205 4 195 -8z"/>
<path d="M2613 5723 c15 -2 37 -2 50 0 12 2 0 4 -28 4 -27 0 -38 -2 -22 -4z"/>
<path d="M2513 5713 c9 -2 23 -2 30 0 6 3 -1 5 -18 5 -16 0 -22 -2 -12 -5z"/>
<path d="M2438 5703 c6 -2 18 -2 25 0 6 3 1 5 -13 5 -14 0 -19 -2 -12 -5z"/>
<path d="M2378 5693 c7 -3 16 -2 19 1 4 3 -2 6 -13 5 -11 0 -14 -3 -6 -6z"/>
<path d="M2640 5694 c-575 -52 -1090 -256 -1530 -604 -124 -98 -338 -310 -434
-430 -275 -344 -475 -770 -560 -1192 -44 -220 -51 -301 -51 -568 1 -288 18
-433 80 -675 150 -583 484 -1105 950 -1485 324 -265 766 -475 1174 -559 340
-71 711 -79 1041 -25 1043 172 1914 945 2218 1969 117 393 142 841 71 1255
-99 579 -363 1086 -784 1505 -436 434 -969 699 -1590 791 -96 14 -492 26 -585
18z m600 -148 c550 -86 1049 -330 1445 -708 435 -415 699 -925 802 -1543 26
-159 26 -600 -1 -770 -180 -1173 -1078 -2068 -2256 -2250 -146 -22 -467 -31
-626 -16 -745 69 -1441 461 -1889 1066 -118 160 -167 241 -256 420 -170 347
-255 691 -266 1090 -13 467 74 858 281 1270 136 268 288 478 495 685 143 143
235 218 413 337 350 233 773 389 1178 432 131 14 556 6 680 -13z"/>
<path d="M2777 4990 c-21 -4 -48 -16 -59 -28 l-21 -21 33 -19 33 -20 61 21
c47 17 62 27 64 45 3 18 -1 22 -21 22 -14 0 -31 2 -39 4 -7 2 -30 0 -51 -4z"/>
<path d="M3347 4902 c-37 -23 -45 -57 -20 -90 43 -59 148 -82 191 -42 26 25
26 22 8 64 -11 25 -28 40 -69 60 -65 30 -73 31 -110 8z"/>
<path d="M2877 4876 c-73 -27 -96 -68 -60 -108 9 -10 57 -31 108 -47 l92 -30
69 18 c88 23 112 36 120 65 16 64 -62 108 -201 113 -60 2 -103 -1 -128 -11z"/>
<path d="M2585 4850 c-62 -13 -94 -28 -147 -67 -58 -42 -78 -81 -51 -97 33
-20 63 -25 95 -15 17 5 33 7 35 5 5 -5 -189 -166 -199 -166 -4 0 -8 18 -8 39
0 77 -52 92 -119 35 -47 -41 -77 -94 -87 -152 -13 -83 39 -107 114 -52 23 17
44 30 47 30 3 0 5 -31 5 -68 0 -102 23 -165 79 -222 149 -149 458 -124 634 51
159 160 149 379 -22 472 -60 33 -162 57 -246 57 -33 0 -70 3 -83 6 -22 6 -21
8 23 55 25 26 45 52 45 56 -1 33 -50 47 -115 33z"/>
<path d="M2272 4770 c-67 -31 -80 -47 -62 -79 11 -21 13 -20 70 25 35 27 60
55 60 65 0 11 -1 19 -2 19 -2 -1 -31 -14 -66 -30z"/>
<path d="M3209 4667 c-67 -45 -87 -132 -48 -217 27 -60 54 -88 114 -116 87
-41 182 -26 228 37 24 34 26 109 3 164 -51 121 -208 192 -297 132z"/>
<path d="M1961 4384 c-25 -31 -34 -62 -29 -95 5 -38 47 -32 76 11 48 72 5 150
-47 84z"/>
<path d="M2090 4233 c-49 -44 -59 -126 -24 -193 19 -37 62 -80 92 -91 58 -22
132 26 132 87 0 18 4 35 9 38 16 10 -62 139 -98 163 -45 30 -74 29 -111 -4z"/>
<path d="M3183 4219 c-101 -19 -211 -99 -256 -184 -31 -60 -30 -155 2 -189 13
-14 40 -31 59 -37 48 -16 150 -5 209 23 97 45 193 173 193 258 0 92 -94 150
-207 129z"/>
<path d="M3599 4146 c-80 -28 -139 -101 -139 -171 1 -67 46 -105 126 -105 98
0 191 76 201 163 7 57 -8 84 -60 108 -49 22 -78 23 -128 5z"/>
<path d="M2420 3974 c-65 -22 -100 -63 -100 -118 0 -70 32 -100 144 -135 80
-25 99 -27 151 -20 105 14 165 51 180 111 10 39 -12 94 -45 118 -79 56 -233
76 -330 44z"/>
<path d="M2010 3898 c-11 -18 -20 -40 -20 -48 1 -28 38 -97 61 -114 35 -24 55
-20 84 18 l26 34 -22 52 c-23 54 -59 90 -90 90 -11 0 -28 -14 -39 -32z"/>
<path d="M2735 3651 c-72 -18 -125 -65 -125 -110 0 -38 50 -80 117 -96 60 -15
63 -15 124 10 35 14 73 35 86 47 31 29 31 87 1 115 -40 37 -129 52 -203 34z"/>
<path d="M4475 3038 c-2 -7 -6 -98 -9 -203 -3 -104 -10 -244 -16 -310 -5 -66
-12 -160 -15 -210 -3 -49 -8 -108 -10 -130 -13 -114 -17 -142 -20 -161 -5 -22
-9 -23 -155 -39 -82 -8 -301 -25 -336 -25 l-34 0 6 43 c4 23 10 51 14 62 4 11
4 31 0 45 -3 14 -2 43 3 65 8 33 26 138 53 300 11 65 17 155 18 266 1 109 0
117 -26 156 -28 43 -90 87 -111 80 -9 -3 -12 -38 -13 -128 0 -68 -8 -178 -17
-244 -20 -139 -23 -164 -37 -265 -5 -41 -16 -124 -25 -184 -8 -59 -14 -111
-13 -115 0 -3 -2 -25 -7 -47 -7 -40 -9 -42 -52 -48 -25 -3 -76 -6 -112 -6 -86
0 -93 -5 -76 -52 12 -37 59 -101 67 -92 3 2 37 -1 77 -8 l71 -12 -4 -46 c-3
-25 -14 -114 -25 -199 -35 -257 -25 -334 46 -362 16 -6 40 -17 55 -24 15 -8
29 -11 31 -7 3 4 5 51 5 105 1 53 6 123 11 155 6 31 13 92 17 135 3 47 10 75
16 71 6 -4 9 5 7 22 -1 16 1 36 5 44 4 9 6 25 5 35 -1 11 -1 34 -1 51 l2 32
78 7 c42 3 95 8 117 10 118 12 248 25 252 25 2 0 2 4 -1 9 -3 5 9 11 27 14 32
5 50 -8 42 -30 -8 -22 -37 -261 -50 -411 -2 -24 -8 -58 -14 -75 -5 -18 -9 -44
-9 -59 1 -30 -20 -148 -33 -193 -6 -16 -12 -62 -16 -102 -5 -62 -3 -76 15
-105 18 -29 31 -37 77 -48 62 -15 73 -10 58 23 -19 39 -21 65 -6 86 8 12 12
21 10 21 -2 0 -1 18 3 40 4 22 4 38 0 35 -4 -2 -7 12 -8 31 -1 19 3 32 8 29
13 -8 22 11 27 63 3 26 9 54 14 64 5 9 6 24 3 32 -3 9 4 32 16 51 16 25 19 40
12 47 -6 6 -7 21 -1 40 4 17 8 33 7 37 -1 3 4 19 10 34 15 35 15 53 1 78 -7
14 -7 30 2 57 7 20 13 42 14 47 1 6 5 19 10 29 6 13 5 21 -3 24 -8 2 -6 12 6
30 13 21 14 24 2 18 -12 -7 -13 -6 -2 5 14 16 16 33 2 24 -14 -9 -12 8 3 24
10 11 9 14 -1 18 -10 4 -9 10 4 25 15 16 16 21 5 28 -11 6 -10 11 7 21 11 7
18 18 16 24 -3 6 29 21 76 35 44 13 80 28 80 33 0 5 -9 7 -21 4 -20 -5 -20 -5
-4 13 17 19 16 20 -9 30 -15 5 -34 10 -42 10 -8 0 -12 5 -9 10 8 12 8 12 -34
0 -19 -5 -37 -7 -41 -5 -4 2 -3 28 2 57 5 29 11 87 14 128 3 41 13 183 23 315
21 281 16 366 -24 427 -23 35 -77 78 -98 78 -4 0 -9 -6 -12 -12z m-198 -1194
c-3 -3 -12 -4 -19 -1 -8 3 -5 6 6 6 11 1 17 -2 13 -5z"/>
<path d="M1755 2970 c-16 -3 -45 -13 -62 -23 -18 -10 -33 -16 -33 -13 0 9 -68
-52 -143 -127 -42 -43 -74 -84 -70 -89 3 -6 1 -8 -4 -5 -15 9 -35 -17 -28 -35
4 -10 -11 -31 -42 -58 -26 -23 -41 -39 -33 -35 8 4 5 -2 -6 -12 -12 -10 -25
-29 -29 -43 -4 -14 -18 -39 -31 -57 -13 -17 -24 -35 -24 -39 0 -3 -14 -22 -30
-41 -17 -18 -30 -38 -30 -44 0 -6 -7 -17 -15 -25 -8 -9 -15 -24 -15 -34 0 -10
-5 -22 -10 -25 -6 -4 -8 -11 -5 -16 4 -5 2 -9 -3 -9 -6 0 -15 -23 -22 -50 -7
-28 -19 -58 -27 -66 -9 -8 -17 -31 -18 -51 -1 -19 -8 -38 -14 -43 -7 -4 -12
-10 -12 -14 1 -3 1 -7 0 -8 0 -2 -3 -16 -5 -33 -3 -16 -10 -35 -15 -41 -5 -7
-9 -16 -8 -20 1 -5 1 -11 0 -14 -1 -3 -4 -21 -6 -40 -1 -19 -8 -86 -14 -147
-15 -151 0 -223 70 -328 77 -115 170 -186 267 -205 68 -12 104 1 181 65 45 37
57 53 49 62 -8 10 -6 13 5 13 8 0 21 8 28 18 11 14 11 15 -1 5 -8 -7 -18 -13
-24 -13 -5 0 -1 6 9 14 11 8 23 12 27 10 14 -9 98 88 98 111 0 9 10 20 23 25
12 5 19 9 15 9 -22 2 54 101 78 102 11 0 14 3 6 6 -6 2 -9 10 -5 16 4 7 8 14
8 17 1 15 34 50 39 41 4 -5 13 -8 20 -5 12 4 12 -5 1 -58 -21 -106 -26 -150
-16 -144 5 4 3 -7 -6 -24 -9 -19 -14 -50 -11 -80 1 -28 0 -50 -3 -50 -4 0 -10
-47 -14 -104 -6 -94 -5 -107 15 -145 14 -29 32 -47 55 -57 18 -7 36 -18 40
-24 24 -38 42 26 39 135 -2 47 0 72 5 60 7 -17 9 -14 13 15 3 21 1 38 -6 42
-8 6 -7 8 2 8 14 0 16 48 3 69 -5 8 -7 21 -4 28 5 12 7 12 14 1 5 -7 9 -8 9
-2 0 26 30 236 35 243 5 9 15 83 20 153 4 53 21 152 40 238 20 87 19 116 -6
151 l-20 29 27 10 c14 6 47 15 73 21 25 5 53 12 62 15 13 3 18 -10 28 -65 8
-44 23 -85 42 -113 90 -135 72 -123 201 -132 42 -3 89 -1 105 4 15 5 42 11 58
14 17 2 57 12 90 22 33 9 69 17 80 18 11 1 25 4 31 8 33 22 365 31 372 10 2
-7 -39 -55 -91 -107 -53 -52 -92 -95 -89 -95 4 -1 -4 -7 -18 -15 -14 -8 -21
-14 -15 -15 5 0 -8 -12 -30 -27 -22 -15 -45 -26 -52 -25 -6 1 -15 -3 -19 -9
-4 -8 -3 -9 4 -5 7 4 12 5 12 3 0 -10 -133 -89 -154 -91 -30 -4 -48 -15 -41
-27 4 -5 -3 -9 -14 -9 -12 0 -21 -6 -21 -12 0 -7 -57 -41 -125 -74 -69 -34
-122 -58 -119 -53 9 16 -13 10 -27 -7 -24 -29 -113 -67 -162 -69 -27 -1 -53
-7 -59 -13 -13 -13 10 -122 26 -122 7 0 17 -13 23 -30 6 -16 19 -33 28 -36 17
-7 92 13 110 28 5 4 20 8 32 8 29 0 103 36 103 50 0 6 9 10 20 10 32 0 198 92
356 196 28 19 54 34 58 34 4 0 17 9 29 21 12 11 52 41 88 65 86 58 243 219
269 275 35 78 21 147 -52 246 -50 68 -73 83 -133 84 -46 2 -47 2 -15 8 l35 7
-40 7 c-58 10 -94 9 -76 -2 15 -10 -30 -16 -169 -25 -48 -3 -64 -2 -45 4 l30
8 -30 0 c-16 0 -43 -4 -60 -8 l-30 -8 30 -2 30 -2 -35 -9 c-271 -67 -379 -82
-415 -55 -15 11 -17 22 -12 65 10 84 32 113 100 129 32 8 56 17 53 20 -3 3 -1
11 4 17 8 9 3 21 -14 42 l-25 30 53 64 c51 63 227 202 353 280 105 65 286 92
366 54 20 -9 37 -19 37 -22 0 -2 -7 -17 -15 -34 -14 -27 -14 -32 2 -59 9 -17
21 -30 25 -30 4 0 22 13 40 29 29 26 32 34 30 77 -2 57 -44 133 -110 196 l-43
43 -108 -1 c-99 -1 -113 -3 -176 -32 -37 -18 -72 -32 -78 -32 -28 0 -351 -243
-416 -314 -13 -14 -28 -23 -34 -19 -6 3 -7 2 -4 -4 8 -12 -40 -79 -54 -75 -5
1 -9 -5 -9 -13 0 -8 -4 -15 -9 -15 -5 0 -8 -6 -7 -14 0 -8 -3 -14 -7 -13 -5 1
-15 -9 -22 -23 -7 -14 -19 -25 -27 -25 -20 -1 -130 -26 -153 -35 -11 -5 -36
-11 -55 -14 -34 -5 -464 -91 -507 -101 -28 -7 -30 -33 -4 -83 25 -48 59 -78
95 -85 15 -2 73 6 129 20 55 13 106 23 114 21 9 -2 3 -19 -23 -57 -20 -29 -31
-50 -25 -47 14 9 14 3 -1 -29 -6 -14 -15 -25 -19 -25 -5 0 -16 -14 -24 -30 -9
-17 -20 -28 -25 -25 -5 3 -12 0 -16 -6 -4 -8 -3 -9 4 -5 19 12 14 -5 -13 -40
-14 -18 -25 -36 -25 -39 0 -10 -28 -35 -39 -35 -6 0 -11 -7 -11 -15 0 -9 -7
-18 -15 -21 -8 -4 -15 -14 -15 -23 0 -9 -26 -48 -57 -85 -32 -38 -68 -85 -80
-105 -13 -23 -28 -35 -38 -33 -9 2 -14 -1 -11 -6 3 -6 -5 -17 -19 -26 -14 -9
-25 -23 -25 -30 0 -35 -131 -105 -197 -106 -52 0 -75 22 -103 98 -19 50 -34
222 -20 222 3 0 5 24 6 53 1 86 69 311 132 436 9 19 16 41 14 48 -2 7 4 16 13
19 9 4 15 16 14 28 -3 26 10 68 20 62 4 -3 8 4 8 15 2 25 22 51 33 44 9 -5 37
30 60 74 8 15 8 21 1 17 -17 -11 -13 10 4 24 8 7 15 9 15 6 0 -4 18 14 41 40
22 26 38 53 35 61 -3 8 -1 11 4 8 6 -4 27 13 48 37 99 115 205 188 273 188
l31 0 -6 -47 c-4 -27 -9 -82 -12 -124 -6 -71 -5 -77 21 -107 15 -18 35 -32 45
-32 41 0 94 172 81 263 -10 73 -53 152 -94 174 -44 23 -126 40 -162 33z m-312
-365 c-10 -13 -25 -27 -33 -30 -8 -4 -2 8 14 24 36 37 43 40 19 6z m-43 -59
c0 -2 -8 -10 -17 -17 -16 -13 -17 -12 -4 4 13 16 21 21 21 13z m-1 -83 c-28
-48 -42 -64 -33 -38 4 11 14 28 22 38 8 9 11 17 6 17 -8 0 16 19 24 20 2 0 -6
-17 -19 -37z m-69 -23 c0 -5 -5 -10 -11 -10 -5 0 -7 5 -4 10 3 6 8 10 11 10 2
0 4 -4 4 -10z m51 -63 c-10 -9 -11 -8 -5 6 3 10 9 15 12 12 3 -3 0 -11 -7 -18z
m-48 -12 c-3 -9 -8 -14 -10 -11 -3 3 -2 9 2 15 9 16 15 13 8 -4z m-33 -65
c-22 -44 -35 -53 -24 -17 6 20 32 57 41 57 2 0 -6 -18 -17 -40z m-62 -115 c-6
-14 -13 -24 -14 -22 -6 6 9 47 17 47 5 0 3 -11 -3 -25z m1657 -185 c3 -5 -1
-10 -10 -10 -9 0 -13 5 -10 10 3 6 8 10 10 10 2 0 7 -4 10 -10z m-984 -157
c-12 -20 -14 -14 -5 12 4 9 9 14 11 11 3 -2 0 -13 -6 -23z m-40 -56 c-10 -9
-11 -8 -5 6 3 10 9 15 12 12 3 -3 0 -11 -7 -18z m28 -89 c-12 -22 -12 -22 -19
-3 -5 13 -3 21 6 23 8 2 14 9 15 15 0 9 2 9 5 0 3 -7 0 -22 -7 -35z m-115 -46
c-14 -29 -34 -51 -34 -37 0 8 44 74 47 71 2 -2 -4 -17 -13 -34z m1 -63 c-6
-16 -9 -18 -16 -8 -4 8 -3 19 3 26 15 18 21 9 13 -18z m-89 -126 c-10 -10 -19
5 -10 18 6 11 8 11 12 0 2 -7 1 -15 -2 -18z"/>
<path d="M2978 2163 c12 -2 32 -2 45 0 12 2 2 4 -23 4 -25 0 -35 -2 -22 -4z"/>
<path d="M4645 1933 c-27 -9 -45 -17 -40 -19 6 -3 35 4 65 15 66 23 46 26 -25
4z"/>
<path d="M1410 5340 c-9 -6 -10 -10 -3 -10 6 0 15 5 18 10 8 12 4 12 -15 0z"/>
<path d="M1354 5304 c-18 -14 -18 -15 4 -4 12 6 22 13 22 15 0 8 -5 6 -26 -11z"/>
<path d="M1205 5204 l-30 -26 33 22 c17 12 32 23 32 26 0 7 -4 5 -35 -22z"/>
</g>
</svg>
