<?xml version="1.0" standalone="no"?>
<!DOCTYPE svg PUBLIC "-//W3C//DTD SVG 20010904//EN"
 "http://www.w3.org/TR/2001/REC-SVG-20010904/DTD/svg10.dtd">
<svg version="1.0" xmlns="http://www.w3.org/2000/svg"
 width="765.000000pt" height="765.000000pt" viewBox="0 0 765.000000 765.000000"
 preserveAspectRatio="xMidYMid meet">
<metadata>
Created by potrace 1.14, written by Peter Selinger 2001-2017
</metadata>
<g transform="translate(0.000000,765.000000) scale(0.100000,-0.100000)"
fill="#000000" stroke="none">
<path d="M3645 6874 c-578 -46 -1105 -235 -1560 -558 -410 -290 -733 -669
-955 -1121 -131 -266 -204 -479 -258 -751 -47 -237 -57 -338 -56 -599 0 -248
12 -378 55 -590 187 -933 803 -1724 1664 -2136 301 -144 621 -237 965 -280
137 -18 523 -18 665 0 1035 125 1911 732 2375 1646 385 757 432 1620 134 2435
-51 139 -202 439 -285 565 -312 479 -716 836 -1224 1085 -305 150 -602 240
-940 285 -115 15 -476 27 -580 19z m374 -134 c588 -40 1109 -234 1580 -588
136 -102 396 -357 503 -492 553 -699 755 -1581 562 -2448 -54 -243 -177 -567
-295 -774 -428 -754 -1142 -1271 -1979 -1431 -206 -40 -316 -50 -540 -50 -229
-1 -356 11 -570 53 -252 50 -486 128 -715 240 -311 152 -565 338 -808 590
-623 646 -915 1553 -782 2433 50 333 180 714 336 989 414 729 1103 1242 1904
1417 275 60 532 79 804 61z"/>
<path d="M3724 5921 c-46 -28 -47 -35 -8 -56 33 -18 37 -18 89 -1 30 9 62 24
71 33 15 15 15 18 -2 30 -27 20 -113 16 -150 -6z"/>
<path d="M4333 5847 c-42 -28 -49 -50 -27 -86 25 -42 69 -64 132 -65 48 -1 57
2 75 26 20 26 20 27 0 60 -12 21 -39 43 -73 60 -65 33 -66 33 -107 5z"/>
<path d="M3893 5830 c-55 -12 -79 -25 -99 -55 -15 -23 -15 -27 0 -51 19 -28
72 -54 154 -74 59 -16 135 -5 200 27 50 25 61 46 42 81 -33 59 -184 96 -297
72z"/>
<path d="M3508 5776 c-160 -66 -200 -173 -61 -164 61 4 64 8 -57 -91 -83 -68
-85 -69 -88 -43 -8 79 -32 103 -83 81 -46 -18 -107 -95 -125 -155 -14 -48 -14
-56 1 -85 15 -28 20 -31 52 -26 19 3 50 18 68 32 19 14 36 25 39 25 3 0 6 -37
6 -82 0 -66 5 -93 24 -134 79 -170 339 -223 561 -113 171 84 273 266 231 411
-41 141 -191 218 -424 218 l-56 0 36 38 c76 79 72 112 -16 112 -30 0 -74 -10
-108 -24z"/>
<path d="M3250 5712 c-42 -21 -56 -33 -58 -52 -5 -55 13 -56 76 -4 56 45 79
84 50 84 -7 0 -38 -13 -68 -28z"/>
<path d="M4210 5623 c-72 -38 -103 -140 -67 -226 34 -79 129 -147 209 -147 53
0 115 27 139 62 27 37 28 120 4 172 -54 113 -199 184 -285 139z"/>
<path d="M2964 5345 c-22 -15 -54 -73 -54 -97 0 -8 6 -22 13 -32 20 -27 54
-12 77 34 23 44 26 80 8 98 -15 15 -19 15 -44 -3z"/>
<path d="M3115 5201 c-53 -15 -85 -65 -85 -133 0 -93 98 -201 167 -183 40 10
83 58 83 94 0 16 5 33 10 36 13 8 -41 108 -82 152 -31 33 -59 43 -93 34z"/>
<path d="M4121 5154 c-132 -47 -230 -164 -231 -277 0 -55 21 -99 58 -119 15
-7 57 -13 101 -13 61 0 87 6 133 27 150 70 243 262 168 343 -50 55 -140 70
-229 39z"/>
<path d="M4564 5085 c-61 -28 -124 -111 -124 -165 0 -35 28 -79 62 -96 48 -25
136 -15 188 21 87 60 114 157 61 217 -26 29 -35 32 -92 35 -40 1 -76 -3 -95
-12z"/>
<path d="M3426 4925 c-68 -19 -98 -44 -116 -94 -14 -39 -13 -44 5 -78 28 -50
57 -69 151 -96 71 -21 90 -23 145 -14 104 15 153 47 169 108 26 97 -74 176
-235 185 -42 2 -90 -2 -119 -11z"/>
<path d="M2996 4848 c-36 -50 -6 -143 57 -178 32 -18 53 -8 80 37 16 28 16 33
1 69 -35 85 -104 121 -138 72z"/>
<path d="M3737 4598 c-51 -11 -114 -44 -127 -67 -5 -11 -10 -34 -10 -51 0 -42
36 -74 110 -94 l59 -17 76 32 c82 34 105 57 105 105 0 40 -44 81 -98 89 -69
11 -77 11 -115 3z"/>
<path d="M5457 3803 c-3 -104 -12 -267 -20 -363 -9 -96 -18 -211 -21 -255 -5
-63 -23 -235 -25 -241 -3 -6 -427 -44 -490 -44 -33 0 -34 0 -27 38 4 20 9 69
12 107 3 65 20 174 45 305 10 52 13 67 24 150 3 19 6 94 7 165 2 126 2 131
-24 168 -29 42 -87 87 -114 87 -15 0 -16 -9 -10 -77 6 -72 -1 -153 -40 -448
-3 -22 -9 -69 -14 -105 -19 -156 -51 -395 -53 -396 -1 -2 -47 -5 -102 -9 -145
-9 -145 -9 -135 -44 4 -17 21 -46 36 -65 24 -29 35 -35 83 -41 99 -12 99 -11
95 -58 -2 -23 -13 -109 -24 -191 -22 -166 -26 -286 -9 -319 15 -28 60 -66 79
-67 9 0 26 -7 38 -16 22 -15 22 -14 23 23 2 104 8 203 13 211 3 5 8 40 10 78
8 104 16 158 25 167 4 4 6 26 4 48 -2 23 0 39 4 36 5 -3 8 14 8 39 0 43 0 44
40 48 70 9 147 15 240 21 50 3 101 8 115 12 24 5 24 6 5 14 -15 7 -12 8 12 3
17 -3 34 0 38 5 3 6 19 11 36 11 34 0 35 -9 19 -118 -6 -37 -15 -112 -21 -167
-6 -55 -14 -129 -19 -165 -5 -36 -13 -96 -18 -135 -5 -38 -12 -77 -16 -85 -3
-8 -8 -33 -11 -55 -2 -22 -9 -60 -14 -85 -18 -83 -14 -145 13 -177 29 -34 114
-62 127 -41 4 7 4 17 0 23 -5 5 -11 27 -15 48 -5 29 -3 39 8 43 12 5 13 10 5
26 -8 15 -8 19 0 14 7 -5 11 3 10 21 0 25 -1 26 -10 8 -8 -17 -9 -17 -4 5 2
14 5 39 5 56 0 24 5 33 21 37 12 3 18 10 15 15 -3 5 -1 32 5 58 5 27 10 63 9
80 0 17 6 37 15 44 18 15 20 50 3 50 -10 0 -10 2 0 9 8 4 12 19 11 32 -2 13 1
31 6 39 5 8 10 51 11 97 1 46 7 89 13 96 6 8 8 17 4 20 -3 4 0 14 7 23 11 13
11 17 0 24 -11 7 -11 11 0 24 7 9 10 19 7 23 -4 3 -1 13 6 21 9 13 9 14 0 8
-7 -4 -13 -3 -13 3 0 5 5 13 10 16 6 3 10 11 10 16 0 6 -4 7 -10 4 -5 -3 -10
1 -10 9 0 9 5 16 11 16 7 0 9 9 5 24 -4 16 -1 26 9 30 8 3 15 12 15 19 0 9 26
24 63 37 88 31 110 42 72 35 -27 -5 -28 -4 -12 8 33 26 15 47 -41 47 -22 0
-24 2 -12 11 12 9 12 10 -3 5 -10 -3 -25 -6 -34 -6 -9 0 -13 -6 -9 -15 8 -22
-7 -18 -21 5 -10 14 -10 32 -2 72 6 29 12 91 14 138 1 47 10 173 20 280 23
253 17 372 -20 436 -25 42 -75 84 -101 84 -8 0 -13 -58 -17 -187z m-268 -1017
c-2 -2 -17 -6 -34 -10 -22 -5 -26 -4 -15 4 14 9 59 15 49 6z"/>
<path d="M4140 3922 c-103 -9 -164 -28 -295 -93 -63 -31 -295 -210 -373 -287
-20 -21 -53 -58 -72 -84 -19 -25 -39 -43 -44 -41 -4 3 -5 -3 -2 -14 4 -13 0
-25 -11 -34 -11 -9 -14 -10 -9 -1 4 6 5 12 1 12 -3 0 -9 -10 -14 -22 -4 -13
-17 -22 -32 -24 -13 -1 -35 -5 -49 -9 -71 -20 -301 -69 -510 -110 -161 -31
-165 -32 -168 -58 -4 -31 35 -96 72 -120 33 -22 69 -21 158 2 145 38 146 38
106 -28 -13 -20 -23 -40 -24 -46 0 -5 -2 -16 -2 -23 -1 -7 -6 -10 -12 -7 -6 3
-7 -1 -4 -10 4 -10 -1 -22 -15 -31 -11 -8 -21 -21 -21 -28 0 -7 -9 -21 -20
-31 -11 -10 -20 -23 -20 -30 0 -6 -19 -32 -42 -56 -23 -24 -42 -48 -42 -52 -1
-4 -5 -11 -11 -15 -5 -4 -18 -23 -28 -42 -10 -19 -40 -60 -68 -90 -27 -30 -57
-70 -66 -88 -9 -19 -21 -31 -29 -28 -12 4 -29 -20 -26 -37 1 -4 -4 -6 -10 -5
-7 2 -12 -5 -12 -14 1 -10 -2 -15 -7 -12 -5 3 -9 1 -9 -4 0 -10 -86 -67 -124
-82 -46 -17 -104 -12 -127 11 -38 38 -62 109 -63 189 -1 41 -5 80 -9 86 -3 6
-3 14 0 18 4 4 9 27 10 52 3 45 18 109 51 224 17 60 27 88 54 146 6 12 11 33
11 47 1 14 4 23 6 21 8 -7 32 36 26 46 -7 12 8 42 21 41 5 0 9 9 9 22 1 24 14
69 24 77 3 3 11 14 18 25 6 11 16 19 22 18 5 -2 24 17 41 41 33 49 38 65 15
46 -8 -7 -15 -8 -15 -3 0 13 34 43 48 43 11 0 62 61 62 74 0 4 -6 4 -12 0 -9
-5 -9 -3 1 9 7 9 17 15 21 12 4 -2 27 19 51 48 24 28 52 58 61 65 10 7 15 19
12 25 -4 7 -4 9 1 5 4 -4 21 4 38 18 44 37 99 62 143 66 l39 3 -2 -40 c-1 -22
-5 -79 -9 -126 -6 -82 -5 -86 21 -117 36 -42 56 -40 79 9 51 111 59 225 22
304 -29 64 -72 100 -142 121 -60 17 -98 13 -150 -18 -18 -11 -38 -17 -44 -13
-6 4 -9 2 -8 -3 2 -5 -25 -31 -60 -57 -63 -48 -112 -102 -112 -124 0 -7 -4
-10 -9 -7 -5 3 -14 -1 -21 -9 -7 -8 -9 -15 -4 -15 5 0 -2 -7 -14 -16 -12 -8
-20 -19 -17 -24 8 -13 -36 -70 -53 -70 -9 0 -12 -6 -8 -17 4 -10 4 -14 0 -11
-9 10 -38 -21 -39 -42 -1 -10 -27 -56 -58 -103 -31 -47 -57 -88 -57 -92 0 -4
-7 -13 -15 -19 -8 -6 -17 -21 -19 -33 -3 -11 -11 -34 -19 -50 -8 -15 -17 -41
-21 -58 -4 -16 -15 -41 -24 -55 -8 -14 -17 -36 -18 -50 -2 -14 -10 -41 -17
-60 -24 -60 -37 -104 -42 -151 -2 -24 -9 -69 -14 -99 -5 -30 -7 -60 -4 -67 3
-7 0 -26 -5 -42 -14 -40 15 -172 53 -237 44 -76 150 -180 218 -214 64 -32 131
-39 170 -19 41 22 97 71 91 80 -3 5 0 8 8 7 7 -2 12 2 11 9 -2 7 4 10 12 7 11
-5 13 -2 9 10 -4 10 -1 16 7 16 10 0 11 3 3 8 -8 5 -4 13 12 25 13 10 24 14
24 8 0 -5 -6 -12 -12 -14 -7 -3 -8 -6 -3 -6 15 -1 26 9 72 65 24 28 40 54 37
57 -3 3 3 12 15 19 12 7 21 18 21 25 0 7 5 13 10 13 6 0 9 4 8 9 -2 5 14 30
35 55 20 24 37 50 37 55 0 18 35 48 51 43 11 -4 12 -2 2 9 -18 18 -16 27 8 40
15 8 19 8 15 0 -4 -6 -8 -39 -9 -74 -2 -34 -5 -67 -9 -72 -12 -22 -19 -105 -8
-105 6 0 5 -8 -4 -22 -13 -22 -36 -216 -36 -310 0 -57 28 -108 73 -131 21 -10
37 -23 37 -28 0 -5 7 -9 15 -9 15 0 21 31 17 89 -1 13 3 32 9 42 5 11 6 19 2
19 -5 0 -7 19 -4 43 4 36 5 38 11 17 6 -22 7 -21 11 13 4 28 1 37 -10 37 -12
0 -11 3 2 18 19 21 24 67 5 56 -8 -5 -9 2 -5 26 4 18 7 38 8 44 1 6 5 0 9 -14
8 -24 8 -24 9 7 1 17 10 84 22 150 11 65 22 148 23 184 2 37 6 71 9 76 3 5 11
40 17 79 6 38 18 102 26 141 16 71 16 74 -6 114 -15 31 -18 44 -9 49 8 6 8 9
-2 14 -8 3 -5 4 6 1 11 -3 45 2 75 10 85 23 87 22 95 -37 13 -105 110 -249
171 -254 122 -10 237 4 349 41 22 8 64 17 93 21 28 3 52 11 52 17 0 5 5 5 13
-2 8 -6 17 -7 21 -3 4 4 20 7 34 8 153 6 231 6 240 0 19 -12 -3 -43 -97 -136
-47 -47 -78 -79 -68 -71 9 7 17 11 17 9 0 -10 -123 -101 -136 -101 -7 0 -11
-4 -8 -8 2 -5 -10 -16 -28 -25 -18 -9 -48 -28 -67 -42 -18 -14 -45 -26 -59
-28 -15 -1 -31 -10 -38 -18 -6 -9 -19 -16 -28 -16 -9 0 -15 -5 -13 -10 1 -6
-9 -17 -23 -25 -20 -12 -182 -94 -224 -113 -5 -3 -6 0 -2 7 5 7 1 9 -8 5 -9
-3 -16 -10 -16 -15 0 -18 -106 -62 -159 -65 -29 -2 -56 -6 -59 -8 -10 -11 21
-126 34 -126 8 0 14 -8 14 -19 0 -10 10 -25 23 -33 19 -13 28 -13 61 -2 22 8
41 12 44 10 2 -3 11 1 19 9 8 8 23 15 33 15 24 0 90 31 90 42 0 4 7 8 16 8 18
0 185 84 261 132 29 18 88 56 132 83 44 28 81 53 81 56 0 4 33 28 73 54 85 56
214 185 253 251 49 83 33 165 -54 279 -23 31 -50 54 -70 61 -18 5 -37 15 -44
22 -7 7 -35 11 -67 10 l-56 -1 60 -7 60 -7 -75 -1 c-84 -2 -221 -17 -290 -32
-25 -5 -106 -24 -180 -41 -142 -33 -243 -36 -261 -7 -11 18 -1 83 21 135 15
34 25 43 57 52 21 6 49 11 63 12 14 0 19 3 12 6 -10 4 -10 8 -1 19 10 12 8 21
-10 45 l-22 30 41 52 c60 76 185 177 349 283 130 84 327 108 405 51 18 -13 18
-15 1 -44 -18 -30 -18 -32 1 -62 l20 -31 38 32 c38 31 38 32 33 86 -5 44 -15
66 -54 119 -71 98 -115 123 -203 115z m-1610 -326 c0 -2 -8 -10 -17 -17 -16
-13 -17 -12 -4 4 13 16 21 21 21 13z m-114 -63 c-14 -15 -26 -25 -26 -20 0 10
43 58 48 53 2 -3 -8 -17 -22 -33z m-45 -66 c-13 -12 -20 -15 -16 -7 14 26 28
41 33 35 3 -3 -5 -16 -17 -28z m5 -77 c-14 -22 -29 -40 -32 -40 -3 0 3 12 14
28 10 15 22 36 26 46 3 10 9 16 13 13 3 -4 -6 -25 -21 -47z m0 -66 c-4 -9 -9
-15 -11 -12 -3 3 -3 13 1 22 4 9 9 15 11 12 3 -3 3 -13 -1 -22z m-77 -57 c-17
-31 -34 -57 -39 -57 -10 0 3 27 40 82 35 52 35 41 -1 -25z m-79 -152 c-7 -20
-14 -34 -17 -31 -3 2 1 20 8 40 17 46 25 38 9 -9z m-78 -197 c-8 -8 -9 -4 -5
13 4 13 8 18 11 10 2 -7 -1 -18 -6 -23z m1758 16 c0 -2 -9 -4 -21 -4 -11 0
-18 4 -14 10 5 8 35 3 35 -6z m-1000 -144 c-6 -11 -13 -20 -16 -20 -2 0 0 9 6
20 6 11 13 20 16 20 2 0 0 -9 -6 -20z m-20 -33 c0 -2 -10 -12 -21 -23 -22 -19
-22 -19 -8 4 12 19 29 30 29 19z m-69 -100 c-10 -9 -11 -8 -5 6 3 10 9 15 12
12 3 -3 0 -11 -7 -18z m-34 -57 c-12 -22 -28 -42 -35 -45 -15 -6 -10 5 25 53
32 43 36 40 10 -8z m-7 -75 c-7 -8 -20 -15 -29 -14 -12 0 -11 2 4 9 11 5 16 9
12 9 -4 1 -2 11 5 24 11 19 13 20 16 4 2 -10 -2 -24 -8 -32z m-128 -107 c-7
-7 -12 -8 -12 -2 0 14 12 26 19 19 2 -3 -1 -11 -7 -17z m46 0 c-2 -6 -10 -14
-16 -16 -7 -2 -10 2 -6 12 7 18 28 22 22 4z"/>
<path d="M3858 3093 c6 -2 18 -2 25 0 6 3 1 5 -13 5 -14 0 -19 -2 -12 -5z"/>
<path d="M5648 2873 c7 -3 16 -2 19 1 4 3 -2 6 -13 5 -11 0 -14 -3 -6 -6z"/>
</g>
</svg>
